%FSLAX23Y23*%
%MOIN*%
G04 EasyPC Gerber Version 18.0.6 Build 3620 *
%ADD138R,0.01800X0.03400*%
%ADD139R,0.01800X0.04600*%
%ADD108R,0.04540X0.04930*%
%ADD115C,0.03600*%
%ADD140R,0.03750X0.02765*%
%ADD142R,0.05800X0.02800*%
%ADD141R,0.04891X0.04537*%
%ADD107R,0.04930X0.04540*%
X0Y0D02*
D02*
D107*
X434Y860D03*
Y930D03*
X488Y860D03*
Y930D03*
X491Y1356D03*
Y1426D03*
X514Y1099D03*
Y1169D03*
X543Y860D03*
Y930D03*
X600Y860D03*
Y930D03*
X655Y860D03*
Y930D03*
X713Y860D03*
Y930D03*
X750Y1101D03*
Y1171D03*
X766Y860D03*
Y930D03*
X823Y860D03*
Y930D03*
X879Y860D03*
Y930D03*
X937Y789D03*
Y859D03*
D02*
D108*
X313Y1179D03*
X314Y1118D03*
X383Y1179D03*
X384Y1118D03*
X593Y1296D03*
X663D03*
X902Y1303D03*
X972D03*
D02*
D115*
X35Y280D03*
Y438D03*
X36Y1352D03*
Y1510D03*
X1222Y282D03*
Y440D03*
X1223Y1346D03*
Y1504D03*
D02*
D138*
X541Y725D03*
X561D03*
X580D03*
X600D03*
X619D03*
X639D03*
X658D03*
X678D03*
X697D03*
X717D03*
D02*
D139*
X510Y621D03*
X748D03*
D02*
D140*
X586Y1132D03*
Y1207D03*
X681Y1132D03*
Y1170D03*
Y1207D03*
D02*
D141*
X902Y1364D03*
X972D03*
D02*
D142*
X578Y1379D03*
Y1416D03*
Y1454D03*
X685Y1379D03*
Y1454D03*
X0Y0D02*
M02*
