%FSLAX23Y23*%
%MOIN*%
G04 EasyPC Gerber Version 18.0.6 Build 3620 *
%ADD21C,0.00300*%
%ADD10C,0.00500*%
%ADD22C,0.00600*%
%ADD71C,0.00800*%
X0Y0D02*
D02*
D10*
X90Y205D02*
X84Y202D01*
X78*
X72Y205*
X69Y211*
Y230*
X72Y236*
X78Y239*
X84*
X90Y236*
X94Y230*
Y211*
X90Y205*
X72Y236*
X92Y1554D02*
X80D01*
X86D02*
Y1591D01*
X92Y1585*
X348Y1233D02*
X351Y1230D01*
X358Y1227*
X367*
X373Y1230*
X376Y1233*
X380Y1239*
Y1252*
X376Y1258*
X373Y1261*
X367Y1264*
X358*
X351Y1261*
X348Y1258*
X314Y1227D02*
Y1264D01*
X330Y1239*
X305*
X349Y1041D02*
X352Y1038D01*
X359Y1035*
X368*
X374Y1038*
X377Y1041*
X381Y1047*
Y1060*
X377Y1066*
X374Y1069*
X368Y1072*
X359*
X352Y1069*
X349Y1066*
X327Y1038D02*
X321Y1035D01*
X315*
X309Y1038*
X306Y1044*
X309Y1051*
X315Y1054*
X321*
X315D02*
X309Y1057D01*
X306Y1063*
X309Y1069*
X315Y1072*
X321*
X327Y1069*
X435Y1425D02*
X438Y1428D01*
X441Y1435*
Y1444*
X438Y1450*
X435Y1453*
X429Y1456*
X416*
X410Y1453*
X407Y1450*
X404Y1444*
Y1435*
X407Y1428*
X410Y1425*
X441Y1397D02*
X438Y1391D01*
X432Y1385*
X422Y1381*
X413*
X407Y1385*
X404Y1391*
Y1397*
X407Y1403*
X413Y1406*
X419Y1403*
X422Y1397*
Y1391*
X419Y1385*
X413Y1381*
X453Y1056D02*
X416D01*
Y1034*
X419Y1027*
X425Y1024*
X431Y1027*
X434Y1034*
Y1056*
Y1034D02*
X453Y1024D01*
X450Y1002D02*
X453Y996D01*
Y990*
X450Y984*
X444Y981*
X438Y984*
X434Y990*
Y996*
Y990D02*
X431Y984D01*
X425Y981*
X419Y984*
X416Y990*
Y996*
X419Y1002*
X477Y1276D02*
Y1304D01*
X480Y1310*
X486Y1313*
X498*
X505Y1310*
X508Y1304*
Y1276*
X533Y1313D02*
X545D01*
X539D02*
Y1276D01*
X533Y1282*
X508Y1056D02*
X471D01*
Y1034*
X474Y1027*
X480Y1024*
X486Y1027*
X489Y1034*
Y1056*
Y1034D02*
X508Y1024D01*
Y990D02*
X471D01*
X496Y1006*
Y981*
X534Y1213D02*
Y1250D01*
X512*
X506Y1247*
X503Y1241*
X506Y1235*
X512Y1232*
X534*
X512D02*
X503Y1213D01*
X478D02*
X465D01*
X471D02*
Y1250D01*
X478Y1244*
X431Y1216D02*
X424Y1213D01*
X418*
X412Y1216*
X409Y1222*
Y1241*
X412Y1247*
X418Y1250*
X424*
X431Y1247*
X434Y1241*
Y1222*
X431Y1216*
X412Y1247*
X561Y1108D02*
X707D01*
Y1234*
X561*
Y1108*
X562Y1056D02*
X525D01*
Y1034*
X528Y1027*
X534Y1024*
X540Y1027*
X543Y1034*
Y1056*
Y1034D02*
X562Y1024D01*
X559Y1006D02*
X562Y999D01*
Y990*
X559Y984*
X553Y981*
X550*
X543Y984*
X540Y990*
Y1006*
X525*
Y981*
X619Y1057D02*
X582D01*
Y1035*
X585Y1028*
X591Y1025*
X597Y1028*
X600Y1035*
Y1057*
Y1035D02*
X619Y1025D01*
X610Y1007D02*
X604Y1003D01*
X600Y997*
Y991*
X604Y985*
X610Y982*
X616Y985*
X619Y991*
Y997*
X616Y1003*
X610Y1007*
X600*
X591Y1003*
X585Y997*
X582Y991*
X674Y1057D02*
X637D01*
Y1035*
X640Y1028*
X646Y1025*
X652Y1028*
X655Y1035*
Y1057*
Y1035D02*
X674Y1025D01*
Y1007D02*
X637Y982D01*
Y1007*
X731Y1025D02*
X734Y1028D01*
X737Y1035*
Y1044*
X734Y1050*
X731Y1053*
X725Y1057*
X712*
X706Y1053*
X703Y1050*
X700Y1044*
Y1035*
X703Y1028*
X706Y1025*
X737Y982D02*
Y1007D01*
X715Y985*
X709Y982*
X703Y985*
X700Y991*
Y1000*
X703Y1007*
X768Y593D02*
X491D01*
Y747*
X768*
Y593*
X754Y1286D02*
X757Y1283D01*
X764Y1280*
X773*
X779Y1283*
X782Y1286*
X785Y1292*
Y1305*
X782Y1311*
X779Y1314*
X773Y1317*
X764*
X757Y1314*
X754Y1311*
X735Y1283D02*
X729Y1280D01*
X720*
X714Y1283*
X710Y1289*
Y1292*
X714Y1299*
X720Y1302*
X735*
Y1317*
X710*
X786Y1057D02*
X749D01*
Y1035*
X752Y1028*
X758Y1025*
X764Y1028*
X767Y1035*
Y1057*
Y1035D02*
X786Y1025D01*
X767Y997D02*
Y991D01*
X764Y985*
X758Y982*
X752Y985*
X749Y991*
Y997*
X752Y1003*
X758Y1007*
X764Y1003*
X767Y997*
X771Y1003*
X777Y1007*
X783Y1003*
X786Y997*
Y991*
X783Y985*
X777Y982*
X771Y985*
X767Y991*
X777Y1224D02*
X780Y1221D01*
X786Y1218*
X795*
X802Y1221*
X805Y1224*
X808Y1230*
Y1243*
X805Y1249*
X802Y1252*
X795Y1255*
X786*
X780Y1252*
X777Y1249*
X752Y1218D02*
X739D01*
X745D02*
Y1255D01*
X752Y1249*
X841Y1025D02*
X844Y1028D01*
X847Y1035*
Y1044*
X844Y1050*
X841Y1053*
X835Y1057*
X822*
X816Y1053*
X813Y1050*
X810Y1044*
Y1035*
X813Y1028*
X816Y1025*
X838Y1007D02*
X831Y1003D01*
X828Y997*
Y991*
X831Y985*
X838Y982*
X844Y985*
X847Y991*
Y997*
X844Y1003*
X838Y1007*
X828*
X819Y1003*
X813Y997*
X810Y991*
X897Y1025D02*
X900Y1028D01*
X903Y1035*
Y1044*
X900Y1050*
X897Y1053*
X891Y1057*
X878*
X872Y1053*
X869Y1050*
X866Y1044*
Y1035*
X869Y1028*
X872Y1025*
X903Y1007D02*
X866Y982D01*
Y1007*
X961Y1411D02*
Y1448D01*
X942*
X936Y1445*
X932Y1442*
X929Y1436*
Y1423*
X932Y1417*
X936Y1414*
X942Y1411*
X961*
X904D02*
X892D01*
X898D02*
Y1448D01*
X904Y1442*
X956Y985D02*
X919D01*
Y963*
X922Y956*
X928Y953*
X934Y956*
X937Y963*
Y985*
Y963D02*
X956Y953D01*
Y925D02*
X953Y919D01*
X947Y913*
X937Y910*
X928*
X922Y913*
X919Y919*
Y925*
X922Y931*
X928Y935*
X934Y931*
X937Y925*
Y919*
X934Y913*
X928Y910*
X998Y1337D02*
Y1390D01*
X875*
Y1337*
X998*
X999Y1220D02*
Y1257D01*
X977*
X970Y1254*
X967Y1248*
X970Y1242*
X977Y1239*
X999*
X977D02*
X967Y1220D01*
X942D02*
X930D01*
X936D02*
Y1257D01*
X942Y1251*
X874Y1220D02*
X899D01*
X877Y1242*
X874Y1248*
X877Y1254*
X883Y1257*
X892*
X899Y1254*
X1185Y214D02*
Y251D01*
X1163*
X1156Y248*
X1153Y242*
X1156Y236*
X1163Y233*
X1185*
X1163D02*
X1153Y214D01*
X1162Y1557D02*
X1187D01*
X1165Y1579*
X1162Y1585*
X1165Y1591*
X1171Y1594*
X1180*
X1187Y1591*
D02*
D71*
X286Y1205D02*
Y1152D01*
X409*
Y1205*
X286*
X287Y1144D02*
Y1091D01*
X410*
Y1144*
X287*
X407Y833D02*
X460D01*
Y956*
X407*
Y833*
X462D02*
X515D01*
Y956*
X462*
Y833*
X464Y1330D02*
X517D01*
Y1453*
X464*
Y1330*
X488Y1072D02*
X541D01*
Y1195*
X488*
Y1072*
X516Y833D02*
X569D01*
Y956*
X516*
Y833*
X573D02*
X626D01*
Y956*
X573*
Y833*
X628D02*
X681D01*
Y956*
X628*
Y833*
X686D02*
X739D01*
Y956*
X686*
Y833*
X689Y1270D02*
Y1323D01*
X566*
Y1270*
X689*
X740Y833D02*
X793D01*
Y956*
X740*
Y833*
X777Y1197D02*
X724D01*
Y1074*
X777*
Y1197*
X796Y833D02*
X849D01*
Y956*
X796*
Y833*
X852D02*
X905D01*
Y956*
X852*
Y833*
X910Y762D02*
X963D01*
Y885*
X910*
Y762*
X998Y1276D02*
Y1329D01*
X875*
Y1276*
X998*
D02*
D21*
X568Y1290D02*
X593D01*
X574Y1303D02*
X586Y1278D01*
X574D02*
X586Y1303D01*
D02*
D22*
X607Y1478D02*
X656D01*
X620Y1355D02*
G75*
G02X644I12D01*
G01*
X656D02*
X607D01*
X667Y1430D02*
Y1403D01*
X0Y0D02*
M02*
