%FSLAX23Y23*%
%MOIN*%
G04 EasyPC Gerber Version 18.0.6 Build 3620 *
%ADD96R,0.02000X0.04300*%
%ADD91R,0.02200X0.05200*%
%ADD79R,0.03940X0.04330*%
%ADD97R,0.04100X0.06400*%
%ADD99R,0.05500X0.07100*%
%ADD95R,0.06300X0.08200*%
%ADD101R,0.10000X0.10000*%
%ADD10C,0.00500*%
%ADD11C,0.01000*%
%ADD85C,0.01500*%
%ADD86C,0.02500*%
%ADD98C,0.03000*%
%ADD15C,0.03200*%
%AMT100*0 Rectangle Pad at angle 45*21,1,0.05500,0.05500,0,0,45*%
%ADD100T100*%
%ADD92R,0.05300X0.01600*%
%ADD89R,0.07200X0.01700*%
%ADD90R,0.05800X0.02200*%
%ADD102C,0.05000*%
%ADD103C,0.05600*%
%ADD81R,0.04330X0.03940*%
%ADD94R,0.07500X0.07100*%
%ADD93R,0.07500X0.07400*%
X0Y0D02*
D02*
D10*
X29Y239D02*
Y204D01*
X1065*
X1049Y219*
G75*
G02X1044Y234I14J14*
G01*
Y242*
X1031*
Y311*
X1032*
X947Y395*
X933Y381*
X876Y438*
X881Y443*
X864Y461*
X743*
G75*
G02X728Y466J20*
G01*
X683Y511*
G75*
G02X677Y526I14J14*
G01*
Y547*
X649*
Y589*
X648Y587*
Y334*
X656Y325*
X738*
Y278*
X655*
Y280*
X654*
G75*
G02X639Y285J20*
G01*
X624Y301*
Y290*
X642Y272*
X655*
Y275*
X738*
Y228*
X655*
Y232*
X634*
G75*
G02X619Y237J20*
G01*
X589Y267*
G75*
G02X584Y282I14J14*
G01*
Y486*
G75*
G02X545Y489I-18J22*
G01*
X485*
X423Y426*
Y425*
X443*
Y378*
X359*
Y388*
G75*
G02X350Y372I-28J5*
G01*
X359*
Y375*
X443*
Y328*
X359*
Y329*
X308*
G75*
G02X292Y335J22*
G01*
X226Y401*
G75*
G02X220Y417I15J15*
G01*
Y577*
G75*
G02X226Y592I22*
G01*
X285Y651*
X284*
X111Y478*
X128*
Y393*
X156*
Y389*
X219*
Y324*
X150*
Y325*
X128*
Y309*
X150*
Y319*
X219*
Y254*
X150*
Y259*
X128*
Y239*
X29*
X339Y323D02*
X359D01*
Y325*
X392*
G75*
G02X410I9J-23*
G01*
X443*
Y278*
X428*
Y275*
X443*
Y228*
X413*
G75*
G02X389I-12J24*
G01*
X359*
Y270*
X344*
G75*
G02X303Y296I-13J26*
G01*
G75*
G02X339Y323I29*
G01*
X655Y425D02*
X738D01*
Y378*
X655*
Y425*
X738Y330D02*
Y328D01*
X655*
Y375*
X738*
Y373*
X812*
X862Y424*
X919Y367*
X902Y350*
X930Y322*
G75*
G02X952Y297I-7J-28*
G01*
X961*
Y311*
X1026*
Y242*
X961*
Y257*
X941*
G75*
G02X927Y262J20*
G01*
X924Y266*
G75*
G02X895Y295I0J29*
G01*
G75*
G02X895Y296I29J0*
G01*
X872Y320*
X862Y311*
X843Y330*
X738*
X219Y276D02*
G36*
Y254D01*
X150*
Y259*
X128*
Y239*
X29*
Y204*
X1065*
X1049Y219*
G75*
G02X1044Y234I14J14*
G01*
Y242*
X1031*
Y276*
X1026*
Y242*
X961*
Y257*
X941*
G75*
G02X927Y262J20*
G01*
X924Y266*
G75*
G02X902Y276I0J29*
G01*
X638*
X642Y272*
X655*
Y275*
X738*
Y228*
X655*
Y232*
X634*
G75*
G02X619Y237J20*
G01*
X589Y267*
G75*
G02X584Y276I14J14*
G01*
X428*
Y275*
X443*
Y228*
X413*
G75*
G02X389I-12J24*
G01*
X359*
Y270*
X344*
G75*
G02X311Y276I-13J26*
G01*
X219*
G37*
X311D02*
G36*
G75*
G02X303Y296I21J20D01*
G01*
G75*
G02X339Y323I29*
G01*
X359*
Y325*
X392*
G75*
G02X410I9J-23*
G01*
X443*
Y278*
X428*
Y276*
X584*
G75*
G02X584Y282I19J6*
G01*
Y486*
G75*
G02X545Y489I-18J22*
G01*
X485*
X423Y426*
Y425*
X443*
Y378*
X359*
Y388*
G75*
G02X350Y372I-28J5*
G01*
X359*
Y375*
X443*
Y328*
X359*
Y329*
X308*
G75*
G02X292Y335J22*
G01*
X226Y401*
G75*
G02X220Y417I15J15*
G01*
Y577*
G75*
G02X226Y592I22*
G01*
X285Y651*
X284*
X111Y478*
X128*
Y393*
X156*
Y389*
X219*
Y324*
X150*
Y325*
X128*
Y309*
X150*
Y319*
X219*
Y276*
X311*
G37*
X902D02*
G36*
G75*
G02X895Y295I21J19D01*
G01*
G75*
G02X895Y296I29J0*
G01*
X872Y320*
X862Y311*
X843Y330*
X738*
Y328*
X655*
Y375*
X738*
Y373*
X812*
X840Y402*
X738*
Y378*
X655*
Y402*
X648*
Y334*
X656Y325*
X738*
Y278*
X655*
Y280*
X654*
G75*
G02X639Y285J20*
G01*
X624Y301*
Y290*
X638Y276*
X902*
G37*
X1031D02*
G36*
Y311D01*
X1032*
X947Y395*
X933Y381*
X913Y402*
X884*
X919Y367*
X902Y350*
X930Y322*
G75*
G02X952Y297I-7J-28*
G01*
X961*
Y311*
X1026*
Y276*
X1031*
G37*
X655Y402D02*
G36*
Y425D01*
X738*
Y402*
X840*
X862Y424*
X884Y402*
X913*
X876Y438*
X881Y443*
X864Y461*
X743*
G75*
G02X728Y466J20*
G01*
X683Y511*
G75*
G02X677Y526I14J14*
G01*
Y547*
X649*
Y589*
X648Y587*
Y402*
X655*
G37*
X29Y478D02*
X66D01*
Y481*
G75*
G02X71Y495I20*
G01*
X256Y679*
G75*
G02X234Y727I0J29*
G01*
G75*
G02X224Y732I5J21*
G01*
X205Y751*
Y719*
X117*
Y826*
X128*
Y963*
X117*
Y1070*
X202*
Y1211*
G75*
G02X206Y1222I15*
G01*
X212Y1228*
G75*
G02X223Y1233I11J-11*
G01*
X888*
G75*
G02X893Y1231J-15*
G01*
X896Y1230*
G75*
G02X900Y1228I-6J-14*
G01*
X938*
Y1219*
G75*
G02X939Y1161I-23J-29*
G01*
Y1158*
G75*
G02X940Y1155I-13J-7*
G01*
X941Y1153*
G75*
G02X941Y1149I-14J-4*
G01*
Y1140*
G75*
G02X941Y1136I-15J0*
G01*
X940Y1133*
G75*
G02X939Y1131I-14J4*
G01*
Y1111*
G75*
G02X939Y1107I-25*
G01*
Y1077*
G75*
G02X940Y1074I-13J-8*
G01*
X941Y1072*
G75*
G02X941Y1067I-14J-5*
G01*
Y1027*
G75*
G02X941Y1026I-15J0*
G01*
X941Y1025*
G75*
G02X941Y1023I-15J2*
G01*
X1150*
X1193Y1066*
Y1262*
X1153Y1301*
G75*
G02X1150Y1305I15J15*
G01*
X1130*
Y1391*
X1101*
Y1459*
X1130*
Y1480*
X1098*
Y1467*
X1029*
Y1532*
X1098*
Y1520*
X1130*
Y1544*
X1194*
Y1547*
X814*
G75*
G02X783I-15J37*
G01*
X129*
Y1465*
X157*
Y1397*
X129*
Y1311*
X111*
G75*
G02X106Y1303I-20J7*
G01*
X77Y1274*
G75*
G02X76Y1273I-28J4*
G01*
G75*
G02X77Y1271I-20J-2*
G01*
Y1244*
X91*
Y1179*
X29*
Y1174*
X91*
Y1109*
X29*
Y1092*
X112*
Y996*
X29*
Y991*
X112*
Y798*
X29*
Y794*
X112*
Y698*
X29*
Y478*
X166Y1244D02*
Y1369D01*
X291*
Y1244*
X166*
X349D02*
G75*
G02X341Y1242I-8J13D01*
G01*
X313*
G75*
G02X297Y1257J15*
G01*
Y1372*
X189*
G75*
G02X173Y1387J15*
G01*
Y1519*
G75*
G02X189Y1534I15*
G01*
X924*
G75*
G02X939Y1519J-15*
G01*
Y1420*
X946*
Y1351*
X941*
Y1336*
X1012*
Y1318*
X1021*
G75*
G02X1066Y1295I17J-23*
G01*
G75*
G02X1015Y1278I-29*
G01*
X1012*
Y1259*
X939*
Y1257*
G75*
G02X924Y1242I-15*
G01*
X466*
G75*
G02X458Y1244J15*
G01*
X349*
X944Y1069D02*
Y1138D01*
X1009*
Y1069*
X944*
X951Y1351D02*
Y1420D01*
X1016*
Y1351*
X951*
X1012Y1170D02*
Y1151D01*
X965*
Y1228*
X1012*
Y1210*
X1022*
Y1211*
X1091*
Y1146*
X1022*
Y1170*
X1012*
X1022Y1141D02*
X1091D01*
Y1076*
X1022*
Y1141*
X1029Y1462D02*
X1098D01*
Y1397*
X1029*
Y1462*
X108Y1307D02*
G36*
G75*
G02X106Y1303I-18J12D01*
G01*
X77Y1274*
G75*
G02X76Y1273I-28J4*
G01*
G75*
G02X77Y1271I-20J-2*
G01*
Y1244*
X91*
Y1179*
X29*
Y1174*
X91*
Y1109*
X29*
Y1092*
X112*
Y996*
X29*
Y991*
X112*
Y798*
X29*
Y794*
X112*
Y698*
X29*
Y478*
X66*
Y481*
G75*
G02X71Y495I20*
G01*
X256Y679*
G75*
G02X234Y727I0J29*
G01*
G75*
G02X224Y732I5J21*
G01*
X205Y751*
Y719*
X117*
Y826*
X128*
Y963*
X117*
Y1070*
X202*
Y1211*
G75*
G02X206Y1222I15*
G01*
X212Y1228*
G75*
G02X223Y1233I11J-11*
G01*
X888*
G75*
G02X893Y1231J-15*
G01*
X896Y1230*
G75*
G02X900Y1228I-6J-14*
G01*
X938*
Y1219*
G75*
G02X952Y1187I-23J-29*
G01*
X965*
Y1228*
X1012*
Y1210*
X1022*
Y1211*
X1091*
Y1187*
X1193*
Y1262*
X1153Y1301*
G75*
G02X1150Y1305I15J15*
G01*
X1130*
Y1307*
X1063*
G75*
G02X1066Y1295I-26J-12*
G01*
G75*
G02X1015Y1278I-29*
G01*
X1012*
Y1259*
X939*
Y1257*
G75*
G02X924Y1242I-15*
G01*
X466*
G75*
G02X458Y1244J15*
G01*
X349*
G75*
G02X341Y1242I-8J13*
G01*
X313*
G75*
G02X297Y1257J15*
G01*
Y1307*
X291*
Y1244*
X166*
Y1307*
X108*
G37*
X166D02*
G36*
Y1369D01*
X291*
Y1307*
X297*
Y1372*
X189*
G75*
G02X174Y1386J15*
G01*
X129*
Y1311*
X111*
G75*
G02X108Y1307I-20J7*
G01*
X166*
G37*
X1130D02*
G36*
Y1386D01*
X1016*
Y1351*
X951*
Y1386*
X946*
Y1351*
X941*
Y1336*
X1012*
Y1318*
X1021*
G75*
G02X1063Y1307I17J-23*
G01*
X1130*
G37*
X939Y1104D02*
G36*
Y1077D01*
G75*
G02X940Y1074I-13J-8*
G01*
X941Y1072*
G75*
G02X941Y1067I-14J-5*
G01*
Y1027*
G75*
G02X941Y1026I-15J0*
G01*
X941Y1025*
G75*
G02X941Y1023I-15J2*
G01*
X1150*
X1193Y1066*
Y1104*
X1091*
Y1076*
X1022*
Y1104*
X1009*
Y1069*
X944*
Y1104*
X939*
G37*
X944D02*
G36*
Y1138D01*
X1009*
Y1104*
X1022*
Y1141*
X1091*
Y1104*
X1193*
Y1187*
X1091*
Y1146*
X1022*
Y1170*
X1012*
Y1151*
X965*
Y1187*
X952*
G75*
G02X939Y1161I-38J2*
G01*
Y1158*
G75*
G02X940Y1155I-13J-7*
G01*
X941Y1153*
G75*
G02X941Y1149I-14J-4*
G01*
Y1140*
G75*
G02X941Y1136I-15J0*
G01*
X940Y1133*
G75*
G02X939Y1131I-14J4*
G01*
Y1111*
G75*
G02X939Y1107I-25*
G01*
Y1104*
X944*
G37*
X174Y1386D02*
G36*
G75*
G02X173Y1387I15J1D01*
G01*
Y1430*
X157*
Y1397*
X129*
Y1386*
X174*
G37*
X951D02*
G36*
Y1420D01*
X1016*
Y1386*
X1130*
Y1391*
X1101*
Y1430*
X1098*
Y1397*
X1029*
Y1430*
X939*
Y1420*
X946*
Y1386*
X951*
G37*
X173Y1430D02*
G36*
Y1519D01*
G75*
G02X189Y1534I15*
G01*
X924*
G75*
G02X939Y1519J-15*
G01*
Y1430*
X1029*
Y1462*
X1098*
Y1430*
X1101*
Y1459*
X1130*
Y1480*
X1098*
Y1467*
X1029*
Y1532*
X1098*
Y1520*
X1130*
Y1544*
X1194*
Y1547*
X814*
G75*
G02X783I-15J37*
G01*
X129*
Y1465*
X157*
Y1430*
X173*
G37*
X217Y1070D02*
Y943D01*
X518*
Y1027*
X926*
X926Y1027*
Y1067*
X926Y1069*
X874*
Y1138*
X926*
X926Y1140*
Y1149*
X926Y1151*
X891*
Y1216*
X888Y1218*
X223*
X217Y1211*
Y1070*
X217Y1070*
G36*
Y943*
X518*
Y1027*
X926*
X926Y1027*
Y1067*
X926Y1069*
X874*
Y1138*
X926*
X926Y1140*
Y1149*
X926Y1151*
X891*
Y1216*
X888Y1218*
X223*
X217Y1211*
Y1070*
X217Y1070*
G37*
X305Y384D02*
G75*
G02X310Y412I27J10D01*
G01*
Y473*
G75*
G02X316Y488I22*
G01*
X365Y536*
X377Y547*
X361*
Y623*
X318*
X263Y568*
Y425*
X305Y384*
G36*
G75*
G02X310Y412I27J10*
G01*
Y473*
G75*
G02X316Y488I22*
G01*
X365Y536*
X377Y547*
X361*
Y623*
X318*
X263Y568*
Y425*
X305Y384*
G37*
X341Y1257D02*
Y1369D01*
X466*
Y1257*
X924*
Y1259*
X891*
Y1336*
X924*
Y1351*
X881*
Y1420*
X924*
Y1519*
X189*
Y1387*
X313*
Y1257*
X341*
G36*
Y1369*
X466*
Y1257*
X924*
Y1259*
X891*
Y1336*
X924*
Y1351*
X881*
Y1420*
X924*
Y1519*
X189*
Y1387*
X313*
Y1257*
X341*
G37*
X458Y723D02*
X624Y889D01*
G75*
G02X638Y895I14J-14*
G01*
X649*
Y922*
X746*
Y858*
X768Y880*
Y956*
G75*
G02X774Y971I22*
G01*
X815Y1012*
X666*
Y956*
X601*
Y1012*
X596*
Y956*
X585*
Y871*
G75*
G02X579Y855I-22*
G01*
X480Y756*
G75*
G02X465Y750I-15J15*
G01*
X458*
Y723*
G36*
X624Y889*
G75*
G02X638Y895I14J-14*
G01*
X649*
Y922*
X746*
Y858*
X768Y880*
Y956*
G75*
G02X774Y971I22*
G01*
X815Y1012*
X666*
Y956*
X601*
Y1012*
X596*
Y956*
X585*
Y871*
G75*
G02X579Y855I-22*
G01*
X480Y756*
G75*
G02X465Y750I-15J15*
G01*
X458*
Y723*
G37*
X746Y691D02*
X772D01*
G75*
G02X786Y685J-20*
G01*
X814Y656*
Y742*
X884*
X872Y753*
X746*
Y691*
G36*
X772*
G75*
G02X786Y685J-20*
G01*
X814Y656*
Y742*
X884*
X872Y753*
X746*
Y691*
G37*
X809Y793D02*
X881D01*
G75*
G02X895Y787J-20*
G01*
X940Y742*
X980*
X993Y755*
Y795*
X1061*
Y800*
X993*
Y865*
X1061*
Y889*
G75*
G02X1052Y910I20J20*
G01*
G75*
G02X1109I29*
G01*
G75*
G02X1101Y889I-29*
G01*
Y781*
G75*
G02X1062Y739I-20J-20*
G01*
Y730*
X1026*
X989Y693*
Y646*
X909*
Y717*
X895Y731*
Y646*
X825*
X875Y596*
X891*
G75*
G02X929Y598I20J-20*
G01*
X1037*
X1074Y636*
X1131Y579*
X1074Y523*
X1042Y555*
X1014*
X1060Y509*
X1004Y452*
X957Y499*
X881*
G75*
G02X886Y495I-9J-18*
G01*
X910Y471*
X933Y494*
X989Y438*
X975Y424*
X1078Y321*
G75*
G02X1083Y311I-14J-14*
G01*
X1096*
Y242*
X1084*
Y242*
X1095Y231*
X1180*
X1188Y239*
Y241*
X1129*
Y327*
X1100*
Y395*
X1129*
Y480*
X1229*
Y1041*
X1174Y986*
G75*
G02X1159Y980I-15J15*
G01*
X978*
Y916*
X913*
Y980*
X908*
Y916*
X875*
Y915*
X895*
Y819*
X835*
X809Y793*
X909Y819D02*
Y915D01*
X989*
Y819*
X909*
X1145Y593D02*
X1088Y650D01*
X1145Y707*
X1202Y650*
X1145Y593*
X895Y867D02*
G36*
Y819D01*
X835*
X809Y793*
X881*
G75*
G02X895Y787J-20*
G01*
X940Y742*
X980*
X993Y755*
Y795*
X1061*
Y800*
X993*
Y865*
X1061*
Y867*
X989*
Y819*
X909*
Y867*
X895*
G37*
X909D02*
G36*
Y915D01*
X989*
Y867*
X1061*
Y889*
G75*
G02X1052Y910I20J20*
G01*
G75*
G02X1109I29*
G01*
G75*
G02X1101Y889I-29*
G01*
Y781*
G75*
G02X1062Y739I-20J-20*
G01*
Y730*
X1026*
X989Y693*
Y650*
X1088*
X1145Y707*
X1202Y650*
X1229*
Y1041*
X1174Y986*
G75*
G02X1159Y980I-15J15*
G01*
X978*
Y916*
X913*
Y980*
X908*
Y916*
X875*
Y915*
X895*
Y867*
X909*
G37*
X989Y650D02*
G36*
Y646D01*
X909*
Y717*
X895Y731*
Y646*
X825*
X875Y596*
X891*
G75*
G02X929Y598I20J-20*
G01*
X1037*
X1074Y636*
X1131Y579*
X1074Y523*
X1042Y555*
X1014*
X1060Y509*
X1004Y452*
X957Y499*
X881*
G75*
G02X886Y495I-9J-18*
G01*
X910Y471*
X933Y494*
X989Y438*
X975Y424*
X1078Y321*
G75*
G02X1083Y311I-14J-14*
G01*
X1096*
Y242*
X1084*
Y242*
X1095Y231*
X1180*
X1188Y239*
Y241*
X1129*
Y327*
X1100*
Y395*
X1129*
Y480*
X1229*
Y650*
X1202*
X1145Y593*
X1088Y650*
X989*
G37*
X1145Y330D02*
X1192D01*
Y391*
X1145*
Y330*
G36*
X1192*
Y391*
X1145*
Y330*
G37*
D02*
D11*
X80Y828D02*
X62Y846D01*
Y848*
X167Y845D02*
Y839D01*
X156Y828*
D02*
D15*
X49Y1279D03*
X56Y629D03*
X125Y1277D03*
X137Y631D03*
X145Y1141D03*
X181Y475D03*
X256Y708D03*
Y786D03*
Y1118D03*
X258Y1179D03*
X288Y830D03*
X289Y875D03*
X313Y552D03*
X332Y296D03*
Y394D03*
X472Y611D03*
X473Y654D03*
X514Y235D03*
Y392D03*
X566Y509D03*
X734Y991D03*
X766Y414D03*
X798Y709D03*
X847Y235D03*
X857Y1176D03*
X912Y576D03*
X924Y295D03*
X989Y1471D03*
X1012Y954D03*
X1038Y1295D03*
X1081Y761D03*
Y910D03*
X1082Y1337D03*
X1137Y805D03*
Y906D03*
X1138Y1125D03*
X1141Y1254D03*
D02*
D79*
X564Y991D03*
X634D03*
X875Y951D03*
X906Y1104D03*
X914Y1386D03*
X946Y951D03*
X977Y1104D03*
X984Y1386D03*
X994Y277D03*
X1063D03*
D02*
D81*
X57Y1142D03*
Y1212D03*
X185Y287D03*
Y357D03*
X1028Y763D03*
Y833D03*
X1057Y1109D03*
Y1179D03*
X1063Y1430D03*
Y1500D03*
D02*
D85*
X57Y1212D02*
Y1271D01*
X49Y1279*
X96Y1356D02*
Y1506D01*
Y1356D02*
X91D01*
Y1319*
X50Y1278*
Y1279*
X49*
X135Y1431D02*
Y1401D01*
X229Y1307*
X167Y895D02*
X207D01*
X217Y885*
Y771*
X240Y748*
X400*
X401Y747*
X410*
X203Y951D02*
Y945D01*
X167*
X228Y964D02*
X217D01*
X256Y786D02*
Y793D01*
X247Y802*
Y910*
X237Y920*
X167*
X410Y568D02*
X501D01*
X523Y590*
Y675*
X502Y696*
X459*
X410Y568D02*
X425D01*
Y565*
X381Y521*
X380*
X332Y473*
Y394*
X410Y594D02*
X355D01*
X313Y552*
X410Y619D02*
X463D01*
X472Y611*
X410Y645D02*
X464D01*
X473Y654*
X410Y645D02*
X309D01*
X242Y577*
Y417*
X308Y351*
X397*
X398Y352*
X401*
X410Y671D02*
X276D01*
X86Y481*
Y458*
X95Y449*
Y434*
X410Y696D02*
X436D01*
Y696*
X459*
X410Y722D02*
X272D01*
X257Y708*
X256*
X410Y798D02*
X318D01*
Y799*
X287Y830*
X288*
X410Y875D02*
X341D01*
Y875*
X289*
X410Y901D02*
X407Y903D01*
Y976*
X388Y996*
X564Y991D02*
Y871D01*
X465Y772*
X411*
X410Y773*
X566Y509D02*
X477D01*
X403Y435*
Y402*
X401*
X566Y509D02*
Y760D01*
X656Y850*
X697*
Y850*
X696Y352D02*
X871D01*
X927Y296*
X924*
Y295*
X697Y568D02*
Y526D01*
X743Y481*
X872*
X915Y438*
X933*
X697Y619D02*
X651D01*
X627Y596*
Y326*
X654Y300*
X694*
X696Y302*
X697Y645D02*
X745D01*
X756Y635*
Y537*
X774Y519*
X992*
X1001Y509*
X1004*
X697Y645D02*
X636D01*
X604Y612*
Y282*
X634Y252*
X696*
X697Y747D02*
X759D01*
X798Y709*
X697Y798D02*
X786D01*
X855Y867*
X697Y875D02*
X638D01*
X459Y696*
X875Y951D02*
X855Y930D01*
Y867*
X912Y576D02*
X867D01*
X772Y671*
X697*
X949Y694D02*
X950Y695D01*
Y704*
X881Y773*
X697*
X985Y509D02*
X1004D01*
X989Y1298D02*
X1035D01*
X1038Y1295*
X994Y277D02*
X941D01*
X924Y295*
X1028Y763D02*
Y761D01*
X964Y698*
X949*
Y694*
X1057Y1179D02*
X1045Y1190D01*
X989*
X1063Y277D02*
Y307D01*
X933Y438*
X1063Y277D02*
Y291D01*
X1065*
X1063Y277D02*
Y234D01*
X1087Y211*
X1188*
X1209Y231*
Y277*
X1218Y286*
X1063Y1500D02*
X1163D01*
X1070Y579D02*
X1074D01*
Y577*
X912*
Y576*
X1081Y910D02*
Y761D01*
X1163Y1350D02*
X1169Y1344D01*
Y1317*
X1215Y1271*
Y1058*
X1159Y1002*
X836*
X789Y956*
Y872*
X742Y824*
X697*
Y824*
X1163Y1500D02*
Y1350D01*
D02*
D86*
X39Y284D02*
Y434D01*
X40Y1506D02*
Y1356D01*
X48Y1585D02*
Y1514D01*
X40Y1506*
X56Y625D02*
Y590D01*
Y632D02*
Y667D01*
X57Y1142D02*
X143D01*
X145Y1141*
X59Y629D02*
X94D01*
X95Y284D02*
X182D01*
X185Y287*
X95Y284D02*
Y434D01*
X127Y1274D02*
X152Y1249D01*
X127Y1279D02*
X152Y1304D01*
X133Y631D02*
X98D01*
X137Y627D02*
Y592D01*
Y634D02*
Y669D01*
X140Y631D02*
X175D01*
X141Y1141D02*
X106D01*
X145Y1137D02*
Y1102D01*
Y1144D02*
Y1179D01*
X148Y1141D02*
X183D01*
X178Y472D02*
X153Y447D01*
X178Y477D02*
X153Y502D01*
X183Y472D02*
X208Y447D01*
X183Y477D02*
X208Y502D01*
X185Y357D02*
X136D01*
X134Y359*
X185Y364D02*
Y399D01*
X187Y1265D02*
X156Y1234D01*
X187Y1348D02*
X156Y1379D01*
X194Y357D02*
X229D01*
X217Y964D02*
X203Y951D01*
X253Y1115D02*
X228Y1090D01*
X253Y1120D02*
X228Y1145D01*
X255Y1176D02*
X230Y1151D01*
X255Y1181D02*
X230Y1206D01*
X258Y1115D02*
X283Y1090D01*
X258Y1120D02*
X283Y1145D01*
X260Y1176D02*
X285Y1151D01*
X260Y1181D02*
X285Y1206D01*
X309Y552D02*
X274D01*
X313Y548D02*
Y513D01*
Y555D02*
Y590D01*
X316Y552D02*
X351D01*
Y1438D02*
X316D01*
X366Y1307D02*
X331D01*
X367Y1422D02*
Y1387D01*
Y1453D02*
Y1488D01*
X382Y1438D02*
X417D01*
X401Y252D02*
Y297D01*
X363*
X362Y296*
X332*
X401Y302D02*
Y252D01*
X404Y1344D02*
Y1379D01*
X441Y1307D02*
X476D01*
X484Y238D02*
Y273D01*
X488Y235D02*
X523D01*
X510Y392D02*
X475D01*
X514Y388D02*
Y353D01*
Y395D02*
Y430D01*
X517Y392D02*
X552D01*
X634Y981D02*
Y946D01*
Y991D02*
X734D01*
X641D02*
X676D01*
X696Y400D02*
Y435D01*
Y402D02*
X755D01*
X766Y414*
X713Y402D02*
X748D01*
X730Y991D02*
X695D01*
X734Y987D02*
Y952D01*
X737Y991D02*
X772D01*
X764Y416D02*
X739Y441D01*
X769Y411D02*
X794Y386D01*
X769Y416D02*
X794Y441D01*
X839Y694D02*
X805D01*
X843Y235D02*
X808D01*
X847Y238D02*
Y273D01*
X850Y235D02*
X885D01*
X853Y1176D02*
X809D01*
X855Y671D02*
Y636D01*
Y694D02*
X839Y709D01*
X798*
X857Y1172D02*
Y1128D01*
X899Y1104D02*
X864D01*
X906Y1386D02*
X871D01*
X906Y1094D02*
Y1059D01*
X914Y1395D02*
Y1430D01*
X914Y1190D02*
Y1111D01*
X906Y1104*
X914Y1298D02*
Y1385D01*
X914Y1386*
X946Y951D02*
X1009D01*
X1012Y954*
X949Y867D02*
Y948D01*
X946Y951*
X952Y1298D02*
Y1336D01*
X984Y1368*
Y1386*
Y1395D02*
Y1430D01*
X986Y1468D02*
X961Y1443D01*
X986Y1473D02*
X961Y1498D01*
X991Y1386D02*
X1026D01*
X991Y1468D02*
X1016Y1443D01*
X991Y1473D02*
X1016Y1498D01*
X1012Y950D02*
Y915D01*
X1015Y954D02*
X1050D01*
X1028Y833D02*
X994Y867D01*
X949*
X1054Y1430D02*
X1019D01*
X1057Y1101D02*
Y1066D01*
Y1109D02*
X982D01*
X977Y1104*
X1063Y1422D02*
Y1387D01*
Y1430D02*
X1028D01*
X984Y1386*
X1063Y1430D02*
X1119D01*
X1124Y1425*
X1066Y1109D02*
X1101D01*
X1078Y1337D02*
X1043D01*
X1082Y1333D02*
Y1298D01*
Y1340D02*
Y1375D01*
X1119Y650D02*
X1074D01*
X1120Y361D02*
X1155D01*
X1123D02*
X1147D01*
Y341*
X1171*
X1125Y361D02*
X1090D01*
X1135Y1122D02*
X1110Y1097D01*
X1135Y1127D02*
X1110Y1152D01*
X1137Y801D02*
Y766D01*
Y808D02*
Y843D01*
Y902D02*
Y867D01*
Y909D02*
Y944D01*
X1137Y1254D02*
X1102D01*
X1140Y1122D02*
X1165Y1097D01*
X1140Y1127D02*
X1165Y1152D01*
X1140Y805D02*
X1175D01*
X1140Y906D02*
X1175D01*
X1141Y1250D02*
Y1215D01*
Y1257D02*
Y1292D01*
X1144Y1254D02*
X1179D01*
X1145Y624D02*
Y579D01*
Y676D02*
Y721D01*
X1154Y286D02*
X1119D01*
X1154Y436D02*
X1119D01*
X1162Y305D02*
Y340D01*
Y416D02*
Y381D01*
Y436D02*
Y379D01*
X1171*
Y341*
X1162Y455D02*
Y490D01*
X1171Y341D02*
Y304D01*
X1162*
Y286*
X1171Y650D02*
X1216D01*
X1218Y436D02*
Y286D01*
X1219Y1500D02*
Y1350D01*
Y1500D02*
Y1585D01*
D02*
D89*
X410Y568D03*
Y594D03*
Y619D03*
Y645D03*
Y671D03*
Y696D03*
Y722D03*
Y747D03*
Y773D03*
Y798D03*
Y824D03*
Y850D03*
Y875D03*
Y901D03*
X697Y568D03*
Y594D03*
Y619D03*
Y645D03*
Y671D03*
Y696D03*
Y722D03*
Y747D03*
Y773D03*
Y798D03*
Y824D03*
Y850D03*
Y875D03*
Y901D03*
D02*
D90*
X401Y252D03*
Y302D03*
Y352D03*
Y402D03*
X696Y252D03*
Y302D03*
Y352D03*
Y402D03*
D02*
D91*
X914Y1190D03*
Y1298D03*
X952D03*
X989Y1190D03*
Y1298D03*
D02*
D92*
X167Y845D03*
Y870D03*
Y895D03*
Y920D03*
Y945D03*
D02*
D93*
X62Y848D03*
Y942D03*
D02*
D94*
Y746D03*
Y1044D03*
D02*
D95*
X162Y773D03*
Y1017D03*
D02*
D96*
X134Y359D03*
X135Y1431D03*
X1123Y361D03*
X1124Y1425D03*
D02*
D97*
X39Y284D03*
Y434D03*
X40Y1356D03*
Y1506D03*
X95Y284D03*
Y434D03*
X96Y1356D03*
Y1506D03*
X1162Y286D03*
Y436D03*
X1163Y1350D03*
Y1500D03*
X1218Y286D03*
Y436D03*
X1219Y1350D03*
Y1500D03*
D02*
D98*
X35Y280D03*
Y438D03*
X36Y1352D03*
Y1510D03*
X1222Y282D03*
Y440D03*
X1223Y1346D03*
Y1504D03*
D02*
D99*
X855Y694D03*
Y867D03*
X949Y694D03*
Y867D03*
D02*
D100*
X862Y367D03*
X933Y438D03*
X1004Y509D03*
X1074Y579D03*
X1145Y650D03*
D02*
D101*
X229Y1307D03*
X404D03*
D02*
D102*
X62Y746D02*
Y848D01*
Y942*
Y1044D02*
Y942D01*
X156Y828D02*
X80D01*
X162Y773D02*
X135Y746D01*
X62*
X162Y1017D02*
X135Y1044D01*
X62*
X388Y996D02*
X260D01*
X228Y964*
X799Y1585D02*
X48D01*
X914Y1190D02*
X871D01*
X857Y1176*
X1219Y1585D02*
X799D01*
D02*
D103*
X367Y1438D03*
X799Y1585D03*
X0Y0D02*
M02*
