%FSLAX23Y23*%
%MOIN*%
G04 EasyPC Gerber Version 18.0.6 Build 3620 *
%ADD113R,0.02600X0.04900*%
%ADD106R,0.02800X0.05800*%
%ADD108R,0.04540X0.04930*%
%ADD114R,0.04700X0.07000*%
%ADD116R,0.06100X0.07700*%
%ADD112R,0.06900X0.08800*%
%ADD118R,0.10600X0.10600*%
%ADD115C,0.03600*%
%AMT117*0 Rectangle Pad at angle 45*21,1,0.06100,0.06100,0,0,45*%
%ADD117T117*%
%ADD109R,0.05900X0.02200*%
%ADD104R,0.07800X0.02300*%
%ADD105R,0.06400X0.02800*%
%ADD107R,0.04930X0.04540*%
%ADD111R,0.08100X0.07700*%
%ADD110R,0.08100X0.08000*%
X0Y0D02*
D02*
D104*
X410Y568D03*
Y594D03*
Y619D03*
Y645D03*
Y671D03*
Y696D03*
Y722D03*
Y747D03*
Y773D03*
Y798D03*
Y824D03*
Y850D03*
Y875D03*
Y901D03*
X697Y568D03*
Y594D03*
Y619D03*
Y645D03*
Y671D03*
Y696D03*
Y722D03*
Y747D03*
Y773D03*
Y798D03*
Y824D03*
Y850D03*
Y875D03*
Y901D03*
D02*
D105*
X401Y252D03*
Y302D03*
Y352D03*
Y402D03*
X696Y252D03*
Y302D03*
Y352D03*
Y402D03*
D02*
D106*
X914Y1190D03*
Y1298D03*
X952D03*
X989Y1190D03*
Y1298D03*
D02*
D107*
X57Y1142D03*
Y1212D03*
X185Y287D03*
Y357D03*
X1028Y763D03*
Y833D03*
X1057Y1109D03*
Y1179D03*
X1063Y1430D03*
Y1500D03*
D02*
D108*
X564Y991D03*
X634D03*
X875Y951D03*
X906Y1104D03*
X914Y1386D03*
X946Y951D03*
X977Y1104D03*
X984Y1386D03*
X994Y277D03*
X1063D03*
D02*
D109*
X167Y845D03*
Y870D03*
Y895D03*
Y920D03*
Y945D03*
D02*
D110*
X62Y848D03*
Y942D03*
D02*
D111*
Y746D03*
Y1044D03*
D02*
D112*
X162Y773D03*
Y1017D03*
D02*
D113*
X134Y359D03*
X135Y1431D03*
X1123Y361D03*
X1124Y1425D03*
D02*
D114*
X39Y284D03*
Y434D03*
X40Y1356D03*
Y1506D03*
X95Y284D03*
Y434D03*
X96Y1356D03*
Y1506D03*
X1162Y286D03*
Y436D03*
X1163Y1350D03*
Y1500D03*
X1218Y286D03*
Y436D03*
X1219Y1350D03*
Y1500D03*
D02*
D115*
X35Y280D03*
Y438D03*
X36Y1352D03*
Y1510D03*
X1222Y282D03*
Y440D03*
X1223Y1346D03*
Y1504D03*
D02*
D116*
X855Y694D03*
Y867D03*
X949Y694D03*
Y867D03*
D02*
D117*
X862Y367D03*
X933Y438D03*
X1004Y509D03*
X1074Y579D03*
X1145Y650D03*
D02*
D118*
X229Y1307D03*
X404D03*
X0Y0D02*
M02*
