%FSLAX23Y23*%
%MOIN*%
G04 EasyPC Gerber Version 18.0.6 Build 3620 *
%ADD10C,0.00500*%
%ADD77C,0.10000*%
X0Y0D02*
D02*
D10*
X135Y339D02*
X150Y376D01*
X166Y339*
X141Y355D02*
X160D01*
X185Y339D02*
Y376D01*
X216*
X209Y358D02*
X185D01*
Y339D02*
X216D01*
X135Y497D02*
X150Y534D01*
X166Y497*
X141Y513D02*
X160D01*
X185Y497D02*
Y534D01*
X216*
X209Y516D02*
X185D01*
Y497D02*
X216D01*
X136Y1411D02*
X151Y1448D01*
X167Y1411*
X142Y1427D02*
X161D01*
X186Y1411D02*
Y1448D01*
X217*
X211Y1430D02*
X186D01*
Y1411D02*
X217D01*
X136Y1569D02*
X151Y1606D01*
X167Y1569*
X142Y1585D02*
X161D01*
X186Y1569D02*
Y1606D01*
X217*
X211Y1588D02*
X186D01*
Y1569D02*
X217D01*
X148Y1350D02*
Y1363D01*
X152Y1369*
X155Y1372*
X161Y1375*
X167*
X173Y1372*
X177Y1369*
X180Y1363*
Y1350*
X177Y1344*
X173Y1341*
X167Y1338*
X161*
X155Y1341*
X152Y1344*
X148Y1350*
X156Y700D02*
Y713D01*
X159Y719*
X162Y722*
X168Y725*
X174*
X181Y722*
X184Y719*
X187Y713*
Y700*
X184Y694*
X181Y691*
X174Y688*
X168*
X162Y691*
X159Y694*
X156Y700*
X225Y1348D02*
Y1361D01*
X228Y1367*
X231Y1370*
X237Y1373*
X243*
X250Y1370*
X253Y1367*
X256Y1361*
Y1348*
X253Y1342*
X250Y1339*
X243Y1336*
X237*
X231Y1339*
X228Y1342*
X225Y1348*
X237Y702D02*
Y715D01*
X240Y721*
X243Y724*
X249Y727*
X255*
X262Y724*
X265Y721*
X268Y715*
Y702*
X265Y696*
X262Y693*
X255Y690*
X249*
X243Y693*
X240Y696*
X237Y702*
X245Y1212D02*
Y1225D01*
X248Y1231*
X251Y1234*
X257Y1237*
X263*
X270Y1234*
X273Y1231*
X276Y1225*
Y1212*
X273Y1206*
X270Y1203*
X263Y1200*
X257*
X251Y1203*
X248Y1206*
X245Y1212*
X281Y546D02*
Y559D01*
X284Y565*
X287Y568*
X293Y571*
X299*
X306Y568*
X309Y565*
X312Y559*
Y546*
X309Y540*
X306Y537*
X299Y534*
X293*
X287Y537*
X284Y540*
X281Y546*
X356Y779D02*
Y792D01*
X359Y798*
X362Y801*
X368Y804*
X374*
X381Y801*
X384Y798*
X387Y792*
Y779*
X384Y773*
X381Y770*
X374Y767*
X368*
X362Y770*
X359Y773*
X356Y779*
Y857D02*
Y870D01*
X359Y876*
X362Y879*
X368Y882*
X374*
X381Y879*
X384Y876*
X387Y870*
Y857*
X384Y851*
X381Y848*
X374Y845*
X368*
X362Y848*
X359Y851*
X356Y857*
Y1189D02*
Y1202D01*
X359Y1208*
X362Y1211*
X368Y1214*
X374*
X381Y1211*
X384Y1208*
X387Y1202*
Y1189*
X384Y1183*
X381Y1180*
X374Y1177*
X368*
X362Y1180*
X359Y1183*
X356Y1189*
X358Y1250D02*
Y1263D01*
X361Y1269*
X364Y1272*
X370Y1275*
X376*
X383Y1272*
X386Y1269*
X389Y1263*
Y1250*
X386Y1244*
X383Y1241*
X376Y1238*
X370*
X364Y1241*
X361Y1244*
X358Y1250*
X388Y901D02*
Y914D01*
X391Y920*
X394Y923*
X400Y926*
X406*
X413Y923*
X416Y920*
X419Y914*
Y901*
X416Y895*
X413Y892*
X406Y889*
X400*
X394Y892*
X391Y895*
X388Y901*
X390Y946D02*
Y959D01*
X393Y965*
X396Y968*
X402Y971*
X408*
X414Y968*
X418Y965*
X421Y959*
Y946*
X418Y940*
X414Y937*
X408Y934*
X402*
X396Y937*
X393Y940*
X390Y946*
X413Y623D02*
Y636D01*
X416Y642*
X419Y645*
X425Y648*
X431*
X438Y645*
X441Y642*
X444Y636*
Y623*
X441Y617*
X438Y614*
X431Y611*
X425*
X419Y614*
X416Y617*
X413Y623*
X431Y367D02*
Y380D01*
X435Y386*
X438Y389*
X444Y392*
X450*
X457Y389*
X460Y386*
X463Y380*
Y367*
X460Y361*
X457Y358*
X450Y355*
X444*
X438Y358*
X435Y361*
X431Y367*
Y465D02*
Y478D01*
X435Y484*
X438Y487*
X444Y490*
X450*
X457Y487*
X460Y484*
X463Y478*
Y465*
X460Y459*
X457Y456*
X450Y453*
X444*
X438Y456*
X435Y459*
X431Y465*
X488Y1513D02*
X498D01*
Y1509*
X495Y1503*
X492Y1500*
X485Y1497*
X479*
X473Y1500*
X470Y1503*
X467Y1509*
Y1522*
X470Y1528*
X473Y1531*
X479Y1534*
X485*
X492Y1531*
X495Y1528*
X498Y1522*
X572Y682D02*
Y695D01*
X575Y701*
X578Y704*
X584Y707*
X590*
X597Y704*
X600Y701*
X603Y695*
Y682*
X600Y676*
X597Y673*
X590Y670*
X584*
X578Y673*
X575Y676*
X572Y682*
X573Y725D02*
Y738D01*
X576Y744*
X579Y747*
X585Y750*
X591*
X598Y747*
X601Y744*
X604Y738*
Y725*
X601Y719*
X598Y716*
X591Y713*
X585*
X579Y716*
X576Y719*
X573Y725*
X614Y306D02*
Y319D01*
X617Y325*
X620Y328*
X626Y331*
X632*
X639Y328*
X642Y325*
X645Y319*
Y306*
X642Y300*
X639Y297*
X632Y294*
X626*
X620Y297*
X617Y300*
X614Y306*
Y463D02*
Y476D01*
X617Y482*
X620Y485*
X626Y488*
X632*
X639Y485*
X642Y482*
X645Y476*
Y463*
X642Y457*
X639Y454*
X632Y451*
X626*
X620Y454*
X617Y457*
X614Y463*
X666Y580D02*
Y593D01*
X669Y599*
X672Y602*
X678Y605*
X684*
X691Y602*
X694Y599*
X697Y593*
Y580*
X694Y574*
X691Y571*
X684Y568*
X678*
X672Y571*
X669Y574*
X666Y580*
X834Y1062D02*
Y1075D01*
X837Y1081*
X840Y1084*
X846Y1087*
X852*
X859Y1084*
X862Y1081*
X865Y1075*
Y1062*
X862Y1056*
X859Y1053*
X852Y1050*
X846*
X840Y1053*
X837Y1056*
X834Y1062*
X867Y485D02*
Y498D01*
X870Y504*
X873Y507*
X879Y510*
X885*
X891Y507*
X895Y504*
X898Y498*
Y485*
X895Y479*
X891Y476*
X885Y473*
X879*
X873Y476*
X870Y479*
X867Y485*
X898Y780D02*
Y793D01*
X901Y799*
X904Y802*
X910Y805*
X916*
X923Y802*
X926Y799*
X929Y793*
Y780*
X926Y774*
X923Y771*
X916Y768*
X910*
X904Y771*
X901Y774*
X898Y780*
X920Y1660D02*
X930D01*
Y1656*
X927Y1650*
X924Y1647*
X917Y1644*
X911*
X905Y1647*
X902Y1650*
X899Y1656*
Y1669*
X902Y1675*
X905Y1678*
X911Y1681*
X917*
X924Y1678*
X927Y1675*
X930Y1669*
X947Y306D02*
Y319D01*
X950Y325*
X953Y328*
X959Y331*
X965*
X972Y328*
X975Y325*
X978Y319*
Y306*
X975Y300*
X972Y297*
X965Y294*
X959*
X953Y297*
X950Y300*
X947Y306*
X956Y1247D02*
Y1260D01*
X960Y1266*
X963Y1269*
X969Y1272*
X975*
X982Y1269*
X985Y1266*
X988Y1260*
Y1247*
X985Y1241*
X982Y1238*
X975Y1235*
X969*
X963Y1238*
X960Y1241*
X956Y1247*
X1012Y647D02*
Y660D01*
X1015Y666*
X1018Y669*
X1024Y672*
X1030*
X1037Y669*
X1040Y666*
X1043Y660*
Y647*
X1040Y641*
X1037Y638*
X1030Y635*
X1024*
X1018Y638*
X1015Y641*
X1012Y647*
X1024Y366D02*
Y379D01*
X1027Y385*
X1030Y388*
X1036Y391*
X1042*
X1049Y388*
X1052Y385*
X1055Y379*
Y366*
X1052Y360*
X1049Y357*
X1042Y354*
X1036*
X1030Y357*
X1027Y360*
X1024Y366*
X1089Y1542D02*
Y1555D01*
X1092Y1561*
X1095Y1564*
X1101Y1567*
X1107*
X1114Y1564*
X1117Y1561*
X1120Y1555*
Y1542*
X1117Y1536*
X1114Y1533*
X1107Y1530*
X1101*
X1095Y1533*
X1092Y1536*
X1089Y1542*
X1111Y1025D02*
Y1038D01*
X1115Y1044*
X1118Y1047*
X1124Y1050*
X1130*
X1137Y1047*
X1140Y1044*
X1143Y1038*
Y1025*
X1140Y1019*
X1137Y1016*
X1130Y1013*
X1124*
X1118Y1016*
X1115Y1019*
X1111Y1025*
X1138Y1366D02*
Y1379D01*
X1141Y1385*
X1144Y1388*
X1150Y1391*
X1156*
X1163Y1388*
X1166Y1385*
X1169Y1379*
Y1366*
X1166Y1360*
X1163Y1357*
X1156Y1354*
X1150*
X1144Y1357*
X1141Y1360*
X1138Y1366*
X1181Y832D02*
Y845D01*
X1184Y851*
X1187Y854*
X1193Y857*
X1199*
X1206Y854*
X1209Y851*
X1212Y845*
Y832*
X1209Y826*
X1206Y823*
X1199Y820*
X1193*
X1187Y823*
X1184Y826*
X1181Y832*
Y981D02*
Y994D01*
X1184Y1000*
X1187Y1003*
X1193Y1006*
X1199*
X1206Y1003*
X1209Y1000*
X1212Y994*
Y981*
X1209Y975*
X1206Y972*
X1199Y969*
X1193*
X1187Y972*
X1184Y975*
X1181Y981*
X1182Y1408D02*
Y1421D01*
X1185Y1427*
X1188Y1430*
X1194Y1433*
X1200*
X1207Y1430*
X1210Y1427*
X1213Y1421*
Y1408*
X1210Y1402*
X1207Y1399*
X1200Y1396*
X1194*
X1188Y1399*
X1185Y1402*
X1182Y1408*
X1236Y876D02*
Y889D01*
X1240Y895*
X1243Y898*
X1249Y901*
X1255*
X1262Y898*
X1265Y895*
X1268Y889*
Y876*
X1265Y870*
X1262Y867*
X1255Y864*
X1249*
X1243Y867*
X1240Y870*
X1236Y876*
Y977D02*
Y990D01*
X1240Y996*
X1243Y999*
X1249Y1002*
X1255*
X1262Y999*
X1265Y996*
X1268Y990*
Y977*
X1265Y971*
X1262Y968*
X1255Y965*
X1249*
X1243Y968*
X1240Y971*
X1236Y977*
X1238Y1196D02*
Y1209D01*
X1241Y1215*
X1244Y1218*
X1250Y1221*
X1256*
X1263Y1218*
X1266Y1215*
X1269Y1209*
Y1196*
X1266Y1190*
X1263Y1187*
X1256Y1184*
X1250*
X1244Y1187*
X1241Y1190*
X1238Y1196*
X1241Y1325D02*
Y1338D01*
X1244Y1344*
X1247Y1347*
X1253Y1350*
X1259*
X1266Y1347*
X1269Y1344*
X1272Y1338*
Y1325*
X1269Y1319*
X1266Y1316*
X1259Y1313*
X1253*
X1247Y1316*
X1244Y1319*
X1241Y1325*
X1322Y341D02*
X1337Y378D01*
X1353Y341*
X1328Y357D02*
X1347D01*
X1372Y341D02*
Y378D01*
X1403*
X1397Y360D02*
X1372D01*
Y341D02*
X1403D01*
X1322Y499D02*
X1337Y536D01*
X1353Y499*
X1328Y515D02*
X1347D01*
X1372Y499D02*
Y536D01*
X1403*
X1397Y518D02*
X1372D01*
Y499D02*
X1403D01*
X1323Y1405D02*
X1338Y1442D01*
X1354Y1405*
X1329Y1421D02*
X1348D01*
X1373Y1405D02*
Y1442D01*
X1404*
X1398Y1424D02*
X1373D01*
Y1405D02*
X1404D01*
X1323Y1563D02*
X1338Y1600D01*
X1354Y1563*
X1329Y1579D02*
X1348D01*
X1373Y1563D02*
Y1600D01*
X1404*
X1398Y1582D02*
X1373D01*
Y1563D02*
X1404D01*
D02*
D77*
X35Y280D03*
Y438D03*
X36Y1352D03*
Y1510D03*
X49Y1279D03*
X56Y629D03*
X125Y1277D03*
X137Y631D03*
X145Y1141D03*
X181Y475D03*
X256Y708D03*
Y786D03*
Y1118D03*
X258Y1179D03*
X288Y830D03*
X289Y875D03*
X313Y552D03*
X332Y296D03*
Y394D03*
X367Y1438D03*
X472Y611D03*
X473Y654D03*
X514Y235D03*
Y392D03*
X566Y509D03*
X734Y991D03*
X766Y414D03*
X798Y709D03*
X799Y1585D03*
X847Y235D03*
X857Y1176D03*
X912Y576D03*
X924Y295D03*
X989Y1471D03*
X1012Y954D03*
X1038Y1295D03*
X1081Y761D03*
Y910D03*
X1082Y1337D03*
X1137Y805D03*
Y906D03*
X1138Y1125D03*
X1141Y1254D03*
X1222Y282D03*
Y440D03*
X1223Y1346D03*
Y1504D03*
X0Y0D02*
M02*
